<?xml version="1.0" standalone="no"?>
<!DOCTYPE svg PUBLIC "-//W3C//DTD SVG 20010904//EN"
 "http://www.w3.org/TR/2001/REC-SVG-20010904/DTD/svg10.dtd">
<svg version="1.0" xmlns="http://www.w3.org/2000/svg"
 width="700.000000pt" height="700.000000pt" viewBox="0 0 700.000000 700.000000"
 preserveAspectRatio="xMidYMid meet">
<metadata>
Created by potrace 1.14, written by Peter Selinger 2001-2017
</metadata>
<g transform="translate(0.000000,700.000000) scale(0.100000,-0.100000)"
fill="#000000" stroke="none">
<path d="M2609 6855 c-3 -2 -29 -5 -59 -6 -176 -8 -395 -106 -540 -241 -250
-231 -319 -590 -189 -983 82 -250 275 -560 519 -835 144 -162 387 -396 550
-530 30 -25 62 -52 71 -60 45 -42 380 -300 389 -300 3 0 5 279 5 620 0 589 1
621 19 654 21 39 84 76 130 76 40 0 99 -36 122 -73 18 -31 19 -61 19 -649 1
-340 3 -620 6 -623 11 -10 367 274 569 454 91 81 340 328 426 421 123 134 281
345 371 493 96 159 187 370 206 483 3 16 10 52 16 79 10 51 8 255 -3 310 -73
346 -348 624 -681 689 -16 4 -41 9 -55 12 -36 7 -197 7 -250 -1 -343 -50 -627
-302 -719 -638 -11 -42 -21 -91 -21 -107 0 -39 -15 -39 -18 0 -2 29 -17 91
-41 169 -17 54 -79 172 -124 231 -141 190 -375 326 -592 345 -33 3 -74 8 -91
10 -17 3 -33 3 -35 0z"/>
<path d="M1337 4374 c-1 -1 -45 -5 -97 -8 -81 -5 -150 -16 -258 -41 -100 -23
-296 -118 -371 -180 -327 -271 -425 -711 -239 -1079 89 -177 235 -320 411
-401 124 -57 202 -75 342 -80 141 -4 272 21 390 76 l40 18 -35 -27 c-272 -208
-403 -551 -335 -877 83 -399 440 -701 837 -710 231 -4 423 73 622 252 280 251
533 759 672 1350 16 68 31 123 34 123 3 0 5 -253 4 -562 -1 -505 -5 -648 -19
-713 -5 -20 -11 -50 -21 -109 -3 -16 -21 -74 -41 -129 -198 -571 -706 -951
-1312 -983 -151 -8 -206 -48 -206 -148 0 -69 36 -120 98 -137 48 -13 218 -5
337 16 548 96 1018 443 1266 935 56 111 124 293 139 372 2 11 6 27 9 36 4 16
12 56 22 122 15 97 18 232 19 742 0 317 3 574 6 570 3 -4 16 -52 28 -107 44
-190 139 -491 196 -620 89 -202 126 -276 198 -397 95 -159 245 -330 377 -428
201 -148 443 -209 656 -163 96 20 94 20 140 36 224 81 429 272 518 485 80 189
89 414 26 611 -53 167 -169 326 -325 446 -11 8 4 4 35 -9 96 -41 188 -59 315
-62 176 -5 314 31 465 120 195 114 342 311 401 536 17 66 23 114 23 215 1 180
-15 258 -81 389 -137 272 -389 434 -778 501 -162 28 -464 23 -685 -10 -362
-55 -727 -159 -1160 -330 -102 -40 -218 -88 -259 -107 l-75 -34 40 -23 c21
-13 55 -33 74 -43 98 -56 918 -530 948 -549 12 -7 29 -29 38 -48 48 -102 -20
-211 -133 -211 -30 0 -71 19 -187 85 -82 47 -153 85 -158 85 -4 0 -8 5 -8 10
0 6 -4 10 -10 10 -5 0 -55 27 -111 60 -55 33 -102 60 -104 60 -2 0 -59 33
-128 74 -323 191 -425 246 -443 239 -15 -5 -295 -166 -354 -202 -8 -6 -89 -53
-180 -106 -91 -53 -172 -100 -180 -106 -8 -5 -94 -54 -190 -109 -142 -81 -182
-100 -215 -100 -112 0 -184 129 -122 221 20 29 136 106 277 182 34 18 759 436
789 454 13 8 19 18 15 23 -5 4 -106 46 -224 94 -351 139 -748 264 -1027 322
-43 9 -87 18 -98 20 -11 2 -36 7 -55 10 -19 3 -45 7 -56 9 -12 2 -48 7 -80 10
-33 4 -68 9 -79 11 -50 10 -360 25 -368 18z"/>
</g>
</svg>
